<svg xmlns="http://www.w3.org/2000/svg" width="341" height="499" viewBox="0 0 341 499" fill="none"><path d="M169.803 331.754C140.393 331.754 113.541 323.443 91.1639 310.656V417.426C91.1639 463.459 95.6394 482.639 116.738 489.672V498.623H0.377051V489.672C21.4754 482.639 25.9508 463.459 25.9508 417.426V97.7541C25.9508 60.0328 16.3607 53.6393 0.377051 46.6065V37.6557L84.7705 0.57375L91.1639 5.68848V47.2459C125.049 23.5901 166.607 1.85242 210.721 1.85242C290 1.85242 340.508 68.3442 340.508 155.934C340.508 253.754 274.656 331.754 169.803 331.754ZM91.1639 219.229C91.1639 263.344 148.066 319.607 195.377 319.607C264.426 319.607 280.41 262.705 280.41 204.525C280.41 146.984 261.23 28.0655 165.967 28.0655C137.836 28.0655 113.541 40.8524 91.1639 58.1147V219.229Z" fill="white"></path></svg>